<svg width="50" height="50" viewBox="0 0 50 50" fill="none" xmlns="http://www.w3.org/2000/svg">
<path d="M33.8333 23.9792L37.1042 20.7083L29.2917 12.8958L26.0208 16.1667L17.3958 7.5625C15.7708 5.9375 13.125 5.9375 11.5 7.5625L7.54167 11.5208C5.91667 13.1458 5.91667 15.7917 7.54167 17.4167L16.1458 26.0208L6.25 35.9375V43.75H14.0625L23.9792 33.8333L32.5833 42.4375C34.5625 44.4167 37.2292 43.6875 38.4792 42.4375L42.4375 38.4792C44.0625 36.8542 44.0625 34.2083 42.4375 32.5833L33.8333 23.9792ZM19.125 23.0625L10.5 14.4583L14.4375 10.5L17.0833 13.1458L14.625 15.625L17.5625 18.5625L20.0417 16.0833L23.0625 19.1042L19.125 23.0625ZM35.5417 39.5L26.9375 30.8958L30.8958 26.9375L33.9167 29.9583L31.4375 32.4375L34.375 35.375L36.8542 32.8958L39.5 35.5417L35.5417 39.5Z" fill="#6EC4C5"/>
<path d="M43.1459 14.6667C43.9584 13.8542 43.9584 12.5417 43.1459 11.7292L38.2709 6.85424C37.2917 5.87507 35.9375 6.25007 35.3334 6.85424L31.5209 10.6667L39.3334 18.4792L43.1459 14.6667Z" fill="#6EC4C5"/>
</svg>
