<svg width="50" height="50" viewBox="0 0 50 50" fill="none" xmlns="http://www.w3.org/2000/svg">
<path d="M38.75 13.7916C35.75 13.7916 32.9167 14.9583 30.8958 16.9791L25 22.2083L21.8333 25H21.8542L16.25 29.9791C14.9167 31.3125 13.1458 32.0416 11.25 32.0416C7.35417 32.0416 4.1875 28.8958 4.1875 25C4.1875 21.1041 7.35417 17.9583 11.25 17.9583C13.1458 17.9583 14.9167 18.6875 16.3333 20.1041L18.6875 22.1875L21.8333 19.3958L19.2083 17.0833C17.0833 14.9583 14.25 13.7916 11.25 13.7916C5.04167 13.7916 0 18.8333 0 25C0 31.1666 5.04167 36.2083 11.25 36.2083C14.25 36.2083 17.0833 35.0416 19.1042 33.0208L25 27.8125L25.0208 27.8333L28.1667 25H28.1458L33.75 20.0208C35.0833 18.6875 36.8542 17.9583 38.75 17.9583C42.6458 17.9583 45.8125 21.1041 45.8125 25C45.8125 28.8958 42.6458 32.0416 38.75 32.0416C36.875 32.0416 35.0833 31.3125 33.6667 29.8958L31.2917 27.7916L28.1458 30.5833L30.7917 32.9166C32.9167 35.0208 35.7292 36.1875 38.75 36.1875C44.9583 36.1875 50 31.1666 50 24.9791C50 18.7916 44.9583 13.7916 38.75 13.7916V13.7916Z" fill="#6EC4C5"/>
</svg>
